<?xml version="1.0" standalone="no"?>
<!DOCTYPE svg PUBLIC "-//W3C//DTD SVG 20010904//EN"
 "http://www.w3.org/TR/2001/REC-SVG-20010904/DTD/svg10.dtd">
<svg version="1.0" xmlns="http://www.w3.org/2000/svg"
 width="106.000000pt" height="120.000000pt" viewBox="0 0 106.000000 120.000000"
 preserveAspectRatio="xMidYMid meet">

<g transform="translate(0.000000,120.000000) scale(0.100000,-0.100000)"
fill="#000000" stroke="none">
<path d="M554 1126 c-46 -21 -64 -52 -64 -113 0 -29 -4 -53 -10 -53 -5 0 -10
11 -10 25 0 13 -14 40 -31 60 -27 30 -37 35 -76 35 -36 0 -50 -6 -74 -29 -18
-18 -29 -40 -29 -56 0 -22 -3 -26 -18 -20 -62 26 -115 10 -132 -40 -12 -37
-16 -23 66 -222 50 -121 63 -162 63 -205 0 -91 40 -157 120 -197 26 -14 41
-28 41 -40 0 -21 44 -61 66 -61 10 0 14 -15 14 -55 0 -48 2 -55 20 -55 18 0
20 7 20 54 0 61 5 66 79 66 56 0 71 -12 71 -60 0 -41 12 -64 31 -58 9 3 12 20
10 56 -2 39 1 52 11 52 24 0 60 41 55 62 -4 12 0 21 11 24 58 17 123 59 147
97 59 88 40 218 -39 266 l-34 22 24 77 c14 42 36 111 50 152 13 42 24 87 24
100 0 81 -129 119 -188 57 -12 -13 -31 -48 -41 -78 l-20 -54 0 76 c-1 66 -4
78 -25 98 -30 28 -91 36 -132 17z m96 -34 c22 -18 22 -23 21 -207 -1 -104 -4
-192 -7 -197 -9 -13 -124 -10 -129 5 -2 6 -6 86 -9 177 -6 179 -1 204 44 227
34 17 54 16 80 -5z m248 -38 c31 -22 28 -49 -26 -219 l-48 -150 -67 -2 c-37
-1 -69 2 -71 5 -6 10 93 334 107 351 26 31 73 38 105 15z m-483 -40 c20 -30
93 -264 98 -314 2 -23 -2 -25 -47 -31 -61 -7 -80 -28 -72 -84 8 -61 73 -105
158 -105 25 0 27 -2 22 -32 l-6 -33 26 32 c18 21 38 33 65 38 22 3 47 13 58
21 16 13 15 14 -12 7 -16 -5 -68 -8 -115 -8 -68 0 -92 4 -120 21 -43 25 -65
66 -51 93 18 33 67 41 240 41 196 0 222 -8 258 -81 18 -38 20 -52 12 -93 -5
-27 -17 -63 -27 -80 -24 -41 -94 -87 -143 -93 -36 -5 -38 -7 -24 -23 13 -14
13 -19 1 -36 -12 -16 -29 -19 -128 -22 -125 -4 -168 6 -168 38 0 17 7 20 53
21 29 1 39 4 22 6 -165 20 -231 83 -245 233 -6 60 -19 103 -69 218 -33 79 -61
149 -61 156 0 22 31 56 52 56 20 0 88 -62 88 -80 0 -4 18 -47 41 -96 57 -122
60 -132 46 -138 -9 -3 -9 -5 0 -5 23 -2 22 16 -8 105 -36 106 -59 198 -59 238
0 69 76 89 115 30z"/>
</g>
</svg>
