<?xml version="1.0" standalone="no"?>
<!DOCTYPE svg PUBLIC "-//W3C//DTD SVG 20010904//EN"
 "http://www.w3.org/TR/2001/REC-SVG-20010904/DTD/svg10.dtd">
<svg version="1.0" xmlns="http://www.w3.org/2000/svg"
 width="104.000000pt" height="120.000000pt" viewBox="0 0 104.000000 120.000000"
 preserveAspectRatio="xMidYMid meet">

<g transform="translate(0.000000,120.000000) scale(0.100000,-0.100000)"
fill="#000000" stroke="none">
<path d="M487 1082 c-22 -23 -27 -38 -27 -78 l-1 -49 -13 31 c-29 66 -93 82
-145 38 -25 -21 -31 -34 -31 -64 l0 -39 -27 15 c-53 27 -106 9 -123 -41 -12
-35 -8 -46 61 -205 25 -58 34 -95 39 -166 9 -121 41 -192 104 -232 25 -16 43
-32 40 -35 -12 -12 9 -48 37 -62 25 -14 29 -21 29 -60 0 -39 3 -45 20 -45 18
0 21 6 19 43 -2 24 1 49 5 55 9 16 108 16 124 0 7 -7 12 -31 12 -55 0 -36 3
-43 20 -43 17 0 18 5 14 47 -5 43 -4 49 18 58 12 6 28 24 33 42 7 21 27 43 60
65 33 22 59 50 77 83 32 60 52 77 141 121 l67 34 0 55 c0 45 -4 56 -21 66 -38
20 -123 6 -179 -29 -28 -18 -53 -32 -56 -32 -13 0 1 86 36 214 22 80 40 158
40 173 0 41 -25 71 -69 84 -55 16 -96 -7 -112 -64 -22 -82 -28 -85 -27 -12 0
63 -2 71 -26 92 -40 34 -104 32 -139 -5z m125 -27 c8 -19 9 -71 2 -200 -6 -96
-12 -176 -15 -178 -2 -3 -30 -7 -61 -10 l-57 -5 5 126 c10 262 10 264 30 279
10 7 33 13 51 13 26 0 36 -6 45 -25z m183 -17 c14 -6 28 -22 31 -34 3 -13 -12
-89 -35 -173 -23 -82 -41 -170 -41 -194 0 -44 -1 -45 -37 -52 -54 -10 -107
-40 -128 -72 l-18 -28 24 21 c41 36 90 56 153 61 44 4 75 14 111 36 66 40 132
47 160 17 27 -29 14 -47 -71 -92 -67 -37 -144 -108 -144 -133 0 -8 -21 -32
-46 -54 -45 -39 -91 -59 -144 -62 -19 -1 -17 -3 10 -8 44 -8 53 -37 15 -51
-34 -13 -176 -13 -210 0 -35 13 -29 43 10 51 30 6 30 6 -10 14 -115 23 -166
95 -170 240 -2 71 -8 93 -54 199 -58 136 -63 171 -26 188 41 19 67 -8 113
-120 55 -133 59 -152 36 -152 -9 0 -15 -2 -13 -4 2 -2 56 2 119 9 63 8 142 15
175 16 33 1 52 3 43 6 -24 6 -24 11 22 191 48 185 64 208 125 180z m-397 -36
c13 -13 25 -58 40 -158 30 -190 31 -181 -24 -190 -25 -3 -49 -3 -53 2 -8 8
-61 283 -61 312 0 19 38 52 60 52 11 0 28 -8 38 -18z"/>
</g>
</svg>
