<?xml version="1.0" standalone="no"?>
<!DOCTYPE svg PUBLIC "-//W3C//DTD SVG 20010904//EN"
 "http://www.w3.org/TR/2001/REC-SVG-20010904/DTD/svg10.dtd">
<svg version="1.0" xmlns="http://www.w3.org/2000/svg"
 width="100.000000pt" height="102.000000pt" viewBox="0 0 100.000000 102.000000"
 preserveAspectRatio="xMidYMid meet">

<g transform="translate(0.000000,102.000000) scale(0.100000,-0.100000)"
fill="#000000" stroke="none">
<path d="M631 976 c-71 -26 -93 -73 -111 -246 -6 -58 -12 -106 -14 -107 -1 -1
-55 -5 -121 -9 -92 -5 -127 -11 -152 -26 -18 -11 -37 -17 -41 -14 -16 10 -78
-14 -101 -38 -25 -26 -37 -89 -27 -131 4 -17 18 -31 41 -41 25 -10 35 -21 35
-37 0 -12 7 -33 16 -46 20 -28 88 -60 127 -61 21 0 27 -5 27 -21 0 -14 10 -24
29 -32 32 -12 41 -31 41 -89 0 -27 4 -38 15 -38 12 0 15 13 15 60 0 41 4 60
13 61 6 0 -7 6 -31 12 -49 14 -55 26 -21 44 23 12 22 13 -16 13 -93 0 -180 46
-180 95 0 35 37 60 66 44 10 -5 54 -8 98 -7 48 0 86 -4 94 -10 11 -9 18 -8 31
7 18 20 43 31 114 51 67 18 46 20 -33 3 -90 -20 -174 -6 -205 34 -24 31 -25
37 -5 56 11 11 55 17 178 22 90 4 173 4 184 1 11 -3 33 -20 51 -37 83 -81 35
-195 -100 -238 -35 -11 -53 -20 -42 -20 50 -2 27 -51 -24 -51 -26 0 -33 -10
-18 -26 8 -7 17 -33 20 -59 5 -31 12 -45 23 -45 13 0 14 9 9 53 -6 50 -6 53
24 69 18 10 30 25 30 37 0 13 12 27 33 37 80 42 117 89 117 152 0 49 -30 102
-73 127 -19 11 -26 22 -22 33 3 8 10 34 15 56 5 23 23 88 40 146 45 150 44
147 25 176 -31 48 -105 65 -174 40z m130 -32 c11 -9 19 -30 19 -46 0 -22 -85
-338 -93 -344 -1 -1 -35 -5 -76 -8 l-74 -8 7 99 c9 134 24 221 44 263 31 65
124 88 173 44z m-253 -353 c8 -4 12 -19 10 -32 -3 -23 -7 -24 -80 -27 -45 -2
-78 1 -78 7 0 5 14 21 31 35 31 27 89 35 117 17z m-138 -9 c0 -4 -13 -23 -30
-42 -36 -44 -38 -82 -5 -122 14 -16 23 -34 19 -39 -7 -13 -78 -11 -108 2 -57
26 -57 120 0 177 27 27 39 32 78 32 25 0 46 -4 46 -8z m-174 -49 c-16 -56 -17
-94 -3 -122 14 -28 13 -29 -7 -33 -11 -2 -35 -1 -53 4 -78 20 -40 168 44 168
18 0 23 -4 19 -17z m258 -154 c-7 -12 -51 -11 -75 1 -35 19 -20 27 31 17 27
-5 47 -13 44 -18z"/>
</g>
</svg>
