<?xml version="1.0" standalone="no"?>
<!DOCTYPE svg PUBLIC "-//W3C//DTD SVG 20010904//EN"
 "http://www.w3.org/TR/2001/REC-SVG-20010904/DTD/svg10.dtd">
<svg version="1.0" xmlns="http://www.w3.org/2000/svg"
 width="104.000000pt" height="120.000000pt" viewBox="0 0 104.000000 120.000000"
 preserveAspectRatio="xMidYMid meet">

<g transform="translate(0.000000,120.000000) scale(0.100000,-0.100000)"
fill="#000000" stroke="none">
<path d="M543 1119 c-18 -5 -40 -21 -49 -35 -15 -21 -32 -127 -33 -203 -1 -39
-9 -21 -32 70 -11 46 -27 94 -35 106 -17 27 -73 44 -119 36 -40 -6 -85 -47
-85 -76 0 -18 62 -255 77 -293 4 -12 -2 -13 -34 -8 -76 12 -153 -44 -139 -102
4 -14 25 -45 46 -68 22 -24 40 -53 40 -65 0 -65 52 -125 132 -152 40 -13 54
-23 56 -39 3 -15 16 -27 43 -38 l39 -15 0 -59 c0 -51 2 -58 20 -58 18 0 20 7
20 60 0 54 3 62 23 69 19 7 16 9 -23 15 -67 11 -80 16 -80 32 0 10 12 14 38
14 51 1 22 16 -45 23 -89 10 -155 55 -182 124 -18 44 -9 52 39 40 29 -8 48 -8
73 1 28 10 40 10 70 -3 20 -8 56 -16 81 -17 51 -1 50 -1 35 -30 -19 -35 -1
-32 31 6 18 20 39 36 49 36 17 0 86 39 80 45 -3 2 -29 -5 -59 -15 -77 -27
-182 -26 -226 1 -33 20 -52 58 -40 78 11 17 285 61 379 61 52 0 62 -4 89 -30
29 -29 30 -34 26 -100 -3 -65 -6 -72 -43 -110 -23 -23 -60 -48 -87 -58 -42
-15 -46 -19 -41 -42 4 -21 0 -28 -22 -38 -14 -7 -34 -12 -45 -12 -10 0 -22 -4
-25 -10 -3 -5 3 -10 13 -10 24 0 32 -18 32 -76 0 -38 3 -44 21 -44 20 0 21 4
17 61 -4 58 -3 61 24 75 20 11 28 22 28 42 0 23 9 32 56 56 69 36 105 87 112
156 6 66 -3 98 -39 131 l-30 28 66 131 c74 147 79 179 33 213 -33 25 -106 27
-141 4 -13 -8 -35 -40 -48 -71 -28 -64 -44 -73 -32 -18 4 20 8 61 8 91 0 46
-4 56 -25 72 -31 23 -94 31 -137 18z m102 -31 c21 -10 25 -18 25 -57 0 -25 -9
-107 -20 -181 -11 -74 -20 -136 -20 -137 0 -1 -10 -4 -22 -6 -13 -2 -3 -5 22
-5 25 -1 40 2 33 6 -8 5 10 50 60 152 60 121 77 146 100 153 33 10 82 -6 92
-31 3 -9 -23 -75 -65 -159 l-70 -143 -44 0 c-24 0 -79 -6 -122 -14 -154 -28
-255 -38 -269 -26 -8 6 -27 55 -44 108 -81 260 -84 288 -36 310 72 33 98 6
135 -138 16 -63 34 -131 40 -150 18 -61 14 -70 -27 -71 -26 -1 -31 -3 -14 -6
32 -6 93 6 86 17 -8 13 23 320 35 348 16 38 76 53 125 30z m-369 -419 c57 -27
69 -42 53 -67 -10 -16 -10 -26 0 -48 15 -33 5 -44 -41 -46 -41 -1 -95 28 -133
73 -32 39 -32 62 1 88 34 26 66 26 120 0z"/>
</g>
</svg>
