<?xml version="1.0" standalone="no"?>
<!DOCTYPE svg PUBLIC "-//W3C//DTD SVG 20010904//EN"
 "http://www.w3.org/TR/2001/REC-SVG-20010904/DTD/svg10.dtd">
<svg version="1.0" xmlns="http://www.w3.org/2000/svg"
 width="106.000000pt" height="102.000000pt" viewBox="0 0 106.000000 102.000000"
 preserveAspectRatio="xMidYMid meet">

<g transform="translate(0.000000,102.000000) scale(0.100000,-0.100000)"
fill="#000000" stroke="none">
<path d="M431 973 c-78 -41 -95 -110 -63 -244 39 -161 39 -149 -6 -149 -25 0
-52 -9 -76 -25 -24 -16 -51 -25 -77 -25 -80 0 -130 -54 -131 -140 0 -52 25
-100 63 -120 10 -6 25 -26 33 -44 16 -39 77 -79 147 -96 39 -10 48 -16 52 -40
5 -21 15 -31 42 -40 24 -8 35 -18 35 -31 0 -10 7 -19 15 -19 9 0 15 9 15 21 0
12 8 23 20 26 30 8 13 23 -25 23 -42 0 -65 9 -65 25 0 18 23 25 93 27 52 1 46
2 -33 8 -52 3 -119 15 -149 26 -53 19 -121 70 -121 92 0 6 17 14 38 18 20 4
42 10 47 15 6 4 30 3 53 -3 63 -16 126 -3 156 33 14 16 34 29 45 29 26 0 26
-5 1 -37 -11 -14 -20 -33 -20 -42 0 -10 7 -5 20 14 26 40 60 64 90 65 14 1 34
5 45 10 12 5 -4 6 -40 3 -74 -6 -165 11 -199 38 -32 25 -35 73 -7 89 12 6 95
10 201 10 160 0 185 -2 219 -20 57 -29 81 -64 81 -119 0 -84 -66 -153 -180
-187 l-60 -18 30 -12 c57 -24 30 -52 -62 -62 -61 -8 -62 -8 -26 -15 29 -6 39
-14 44 -32 8 -33 43 -35 37 -3 -3 18 4 27 34 43 30 16 38 26 38 48 0 23 9 33
59 60 78 44 115 89 122 153 9 70 -13 117 -71 152 -57 34 -57 38 27 209 34 70
67 142 73 158 26 65 -26 115 -119 115 -99 0 -160 -53 -201 -175 -15 -44 -30
-87 -33 -95 -10 -27 -20 41 -21 146 -1 93 -3 102 -26 124 -34 32 -116 38 -164
13z m135 -34 c16 -18 20 -43 25 -183 4 -88 10 -170 14 -182 5 -15 1 -23 -17
-31 -20 -10 -14 -12 37 -12 46 0 55 2 37 9 -26 11 -26 12 25 170 46 140 72
183 126 209 51 25 66 26 111 7 54 -23 53 -41 -14 -176 -33 -67 -69 -149 -81
-181 l-22 -59 -168 0 c-188 0 -178 -4 -198 76 -5 22 -17 66 -25 98 -38 138
-30 232 22 261 41 22 105 19 128 -6z m-145 -405 c18 -16 17 -18 -11 -44 -17
-16 -30 -37 -30 -48 0 -29 36 -69 76 -84 40 -14 42 -36 4 -55 -36 -18 -121
-16 -149 3 -63 45 -68 179 -8 226 28 22 95 23 118 2z m-177 -105 c1 -58 5 -82
19 -96 23 -26 22 -39 -5 -47 -68 -18 -132 17 -144 79 -13 73 43 150 105 143
23 -3 24 -7 25 -79z"/>
</g>
</svg>
